<svg width="153" height="66" viewBox="0 0 153 66" fill="none" xmlns="http://www.w3.org/2000/svg">
<path d="M153 8.98602C147.12 8.98602 147.12 2 141.233 2C135.346 2 135.352 8.98602 129.465 8.98602C123.579 8.98602 123.579 2 117.698 2C111.818 2 111.811 8.98602 105.931 8.98602C100.051 8.98602 100.051 2 94.1637 2C88.2769 2 88.2769 8.98602 82.3965 8.98602C76.5161 8.98602 76.5096 2 70.6292 2C64.7488 2 64.7424 8.98602 58.862 8.98602C52.9816 8.98602 52.9816 2 47.0947 2C41.2079 2 41.2079 8.98602 35.321 8.98602C29.4342 8.98602 29.4599 2.01398 23.5474 2.01398C17.6348 2.01398 17.6605 9 11.7737 9C5.88684 9 5.88684 2.01398 0 2.01398" stroke="#174078" stroke-width="3" stroke-miterlimit="10"/>
<path d="M139.361 39.0115V49.0971H135.951V23.614H139.254V25.1573C140.797 23.8293 142.627 23.2551 144.53 23.2551C146.109 23.2551 147.509 23.6499 148.657 24.3318C151.205 25.8393 153 28.6747 153 32.0485C153 35.4223 151.241 38.2219 148.693 39.7293C147.544 40.4113 145.965 40.842 144.458 40.842C142.448 40.842 140.725 40.1959 139.361 39.0115ZM139.361 28.8901V35.207C140.51 36.7503 142.268 37.6117 143.991 37.6117C147.257 37.6117 149.59 35.0634 149.59 32.0485C149.59 29.1054 147.437 26.4853 144.171 26.4853C142.125 26.4853 140.402 27.5262 139.361 28.8901Z" fill="#174078"/>
<path d="M126.781 40.4831V38.9397C125.417 40.16 123.586 40.842 121.576 40.842C120.069 40.842 118.49 40.4113 117.341 39.7293C114.793 38.2219 113.034 35.4223 113.034 32.0485C113.034 28.6747 114.829 25.8393 117.377 24.3318C118.525 23.6499 119.925 23.2551 121.504 23.2551C123.407 23.2551 125.237 23.8293 126.781 25.1573V23.614H130.083V40.4831H126.781ZM126.673 35.207V28.8901C125.632 27.5262 123.909 26.4853 121.863 26.4853C118.597 26.4853 116.444 29.1054 116.444 32.0485C116.444 35.0634 118.777 37.6117 122.043 37.6117C123.766 37.6117 125.524 36.7503 126.673 35.207Z" fill="#174078"/>
<path d="M96.4372 23.614H98.8061L103.257 35.0276L107.528 23.614H111.009L104.585 40.4831H102.216L97.6217 28.6388L93.0275 40.4831H90.6587L84.2341 23.614H87.7515L91.9867 35.0276L96.4372 23.614Z" fill="#174078"/>
<path d="M82.4207 35.7454C82.4207 38.9038 79.4058 40.842 76.1397 40.842C73.4478 40.842 71.1507 40.0165 69.3203 38.509L71.0789 36.1761C72.6582 37.3246 74.3092 37.863 76.0679 37.863C77.5394 37.863 79.011 37.0734 79.011 35.7454C79.011 32.4433 69.8586 34.4533 69.8586 28.3517C69.8586 24.7984 73.0889 23.2551 76.1038 23.2551C78.5085 23.2551 80.3749 24.0806 81.7029 25.1214L80.0519 27.4544C78.9392 26.7007 77.683 26.2341 76.3191 26.2341C74.6681 26.2341 73.2683 27.0237 73.2683 28.3517C73.2683 31.223 82.4207 29.6079 82.4207 35.7454Z" fill="#174078"/>
<path d="M61.5394 40.4831V15H64.9491V40.4831H61.5394Z" fill="#174078"/>
<path d="M39.4632 32.0485C39.4632 27.0237 43.1959 23.2551 48.1849 23.2551C53.1738 23.2551 56.9065 27.0237 56.9065 32.0485C56.9065 37.0734 53.1738 40.842 48.1849 40.842C43.1959 40.842 39.4632 37.0734 39.4632 32.0485ZM42.8729 32.0485C42.8729 35.1352 45.0623 37.6117 48.1849 37.6117C51.3074 37.6117 53.4968 35.1352 53.4968 32.0485C53.4968 28.9618 51.3074 26.4853 48.1849 26.4853C45.0623 26.4853 42.8729 28.9618 42.8729 32.0485Z" fill="#174078"/>
<path d="M18.6432 32.0485C18.6432 27.0237 22.3759 23.2551 27.3649 23.2551C32.3538 23.2551 36.0865 27.0237 36.0865 32.0485C36.0865 37.0734 32.3538 40.842 27.3649 40.842C22.3759 40.842 18.6432 37.0734 18.6432 32.0485ZM22.0529 32.0485C22.0529 35.1352 24.2423 37.6117 27.3649 37.6117C30.4874 37.6117 32.6768 35.1352 32.6768 32.0485C32.6768 28.9618 30.4874 26.4853 27.3649 26.4853C24.2423 26.4853 22.0529 28.9618 22.0529 32.0485Z" fill="#174078"/>
<path d="M3.58917 40.4831H0V15.3589H9.51129C11.9519 15.3589 13.5312 15.969 14.7515 17.0099C16.2589 18.302 17.228 20.2043 17.228 22.3578C17.228 24.5113 16.2589 26.4135 14.7515 27.7056C13.5312 28.7465 11.9519 29.3566 9.51129 29.3566H3.58917V40.4831ZM3.58917 18.7686V25.9469H9.33183C11.0546 25.9469 11.9878 25.5162 12.6339 24.8343C13.244 24.1882 13.6388 23.3268 13.6388 22.3578C13.6388 21.3887 13.244 20.5273 12.6339 19.8812C11.9878 19.1993 11.0546 18.7686 9.33183 18.7686H3.58917Z" fill="#174078"/>
<path d="M56.4877 57.3868L54.5042 58.4615C54.5042 60.4366 56.0745 62.0436 58.0045 62.0436C59.9346 62.0436 61.5048 60.4366 61.5048 58.4615L61.5048 46.1334C60.9682 45.6411 60.6297 44.9269 60.6297 44.133C60.6297 42.6517 61.8074 41.4465 63.2549 41.4465C64.7025 41.4465 65.8801 42.6517 65.8801 44.133C65.8801 44.9269 65.5417 45.641 65.0051 46.1334L65.0051 58.4614C65.0051 62.418 61.8708 65.6256 58.0045 65.6256C54.1382 65.6256 51.004 62.4181 51.004 58.4614L51.004 52.133L56.4877 57.3868ZM63.2549 45.0286C63.7374 45.0286 64.13 44.6268 64.13 44.133C64.13 43.6393 63.7374 43.2375 63.2549 43.2375C62.7724 43.2375 62.3799 43.6393 62.3799 44.133C62.3799 44.6268 62.7724 45.0286 63.2549 45.0286Z" fill="#174078"/>
</svg>
